<svg width="357" height="76" viewBox="0 0 357 76" fill="none" xmlns="http://www.w3.org/2000/svg">
<path fill-rule="evenodd" clip-rule="evenodd" d="M3.29779 30.9355C6.21165 35.4643 9.44146 39.819 11.9691 44.6265C14.5319 49.3644 20.5703 60.0942 22.2554 61.5574C23.9405 63.125 25.5203 63.1947 26.9246 61.3483C28.364 59.502 29.4523 57.4814 30.5757 55.426C32.0151 52.8829 33.2438 50.1656 35.2449 47.9709C36.0523 47.1696 36.93 46.3335 37.9481 45.7413C39.5279 44.8355 41.1077 45.0097 42.6524 46.1593C44.5482 47.5877 45.7769 49.5734 46.4439 51.7681C51.8152 69.117 52.0259 75.0394 51.9206 75.0742C50.6567 75.109 46.9003 61.4529 45.9173 58.3872C45.7067 57.6208 42.8981 48.4934 40.4407 48.5283C37.3162 48.6328 28.364 73.3672 27.5214 74.4471C26.5384 75.6664 25.3097 75.7361 24.2916 74.5516C23.4841 73.6459 3.22758 30.9006 3.29779 30.9006V30.9355Z" fill="white"/>
<path fill-rule="evenodd" clip-rule="evenodd" d="M63.0845 59.5368C63.2952 57.3769 63.3654 55.1473 63.8218 53.0222C64.9101 47.2044 66.1388 41.3866 67.3675 35.5688C68.7016 29.6116 69.825 23.5848 69.7197 17.4534C69.6846 14.8407 69.2984 12.2975 67.5782 10.2073C65.7175 7.97773 63.0845 7.24615 60.3462 7.3855C56.5547 7.59452 52.7983 8.01257 49.077 8.67447C44.9344 9.33638 40.7918 9.96345 36.5088 9.30154C32.963 8.77899 29.7332 7.52485 26.8193 5.53913C26.6789 5.43462 26.5736 5.3301 26.398 5.22559C26.3629 5.19076 26.3629 5.12108 26.3629 5.08624C28.1182 5.53913 29.8034 6.09652 31.5938 6.47973C35.7364 7.28099 39.8439 6.61908 43.9514 5.74815C48.6557 4.77271 53.3249 3.58824 58.0994 2.75215C60.9781 2.22959 63.9973 1.98573 66.9112 1.88122C72.3878 1.77671 76.1442 4.87722 77.1623 10.3118C77.8293 13.7259 77.4783 17.1051 76.9166 20.5191C75.9336 26.2324 73.6867 31.4928 71.6857 36.8926C69.0527 44.1387 66.4548 51.3849 63.8569 58.6658C63.6813 59.1884 63.4707 59.7458 63.225 60.2684C63.1196 60.4774 63.0494 60.4774 63.0494 60.338C63.0494 60.0942 63.0845 59.8155 63.1196 59.5716L63.0845 59.5368Z" fill="white"/>
<path fill-rule="evenodd" clip-rule="evenodd" d="M11.5479 37.0667C9.51174 34.8371 8.21279 31.214 6.98406 28.4967C4.84255 23.7937 2.94679 17.7669 3.85956 12.4716C4.77234 7.55959 11.1266 3.4488 15.7958 5.67838C19.9033 7.6641 24.8534 12.3671 29.3821 13.9C34.0864 15.4676 40.195 14.109 40.195 14.109C40.195 14.109 30.4704 12.82 21.2023 4.35457C13.8299 -2.43869 6.24682 -0.766502 2.03401 5.71322C-1.23091 10.7646 -0.0723877 17.5927 2.06912 22.8531C4.21063 27.9393 7.79151 32.9559 11.5479 37.0319V37.0667Z" fill="white"/>
<path fill-rule="evenodd" clip-rule="evenodd" d="M65.6473 70.8938C99.771 58.3872 137.721 54.6596 173.881 60.6516C188.486 63.0554 202.774 66.992 217.484 68.5597C233.106 70.197 249.045 69.1171 264.246 65.3895C276.99 62.289 289.452 57.1331 298.721 48.5631C298.721 48.5631 300.616 48.4586 299.423 49.4689C290.049 57.9343 276.463 68.4203 263.719 71.5208C248.553 75.2484 232.58 76.3284 216.957 74.691C202.247 73.1234 187.959 69.1868 173.425 66.783C137.195 60.8258 99.8061 58.9098 65.7526 71.5905C65.7526 71.5905 64.1728 71.486 65.6473 70.9286V70.8938Z" fill="white"/>
<path fill-rule="evenodd" clip-rule="evenodd" d="M90.6785 4.18054H102.404C105.95 4.18054 109.39 4.77277 112.655 6.2011C117.851 8.50035 121.151 12.6808 121.151 18.4986C121.151 24.3164 119.606 27.3821 116.271 30.3433C113.112 33.1651 108.407 34.5934 103.352 34.5934H90.6785V4.18054ZM98.086 7.21138V31.5277H101.948C103.879 31.5277 105.529 31.1794 106.898 30.5175C111.146 28.3576 113.006 23.8287 112.971 19.056C112.971 16.5129 112.164 14.0743 111.111 12.2976C109.25 9.12742 106.02 7.24622 102.299 7.24622H98.086V7.21138ZM215.729 7.62942H218.607L231.14 34.5586H224.47L221.17 27.417H210.708L207.303 34.5586H202.915L215.764 7.62942H215.729ZM215.974 16.3039L211.867 24.9087H219.976L215.974 16.3039ZM188.521 8.15198H204.284V10.3816H195.156V34.5934H188.521V10.3816H179.393V8.15198H188.521ZM151.624 8.15198H155.766L170.897 24.9435V8.15198H175.04V35.0115H172.231L155.731 16.4084V34.5934H151.589V8.15198H151.624ZM127.646 8.15198H147.376V10.3816H134.07V19.1605H145.129V21.3901H134.07V31.911H147.376V34.5586H127.646V8.15198Z" fill="white"/>
<path fill-rule="evenodd" clip-rule="evenodd" d="M267.827 8.50036C261.718 10.4861 258.453 15.5026 258.278 21.2856C258.383 27.5911 262.315 33.1303 269.336 34.7676C272.812 35.5689 276.393 35.3598 279.763 34.1057C283.695 32.6425 286.714 29.7859 288.013 25.8144C288.715 23.6894 288.926 21.2508 288.575 19.0212C288.048 15.433 285.977 12.4718 283.028 10.4164C278.64 7.42041 272.812 6.82817 267.827 8.46552V8.50036ZM267.616 12.9247C266.738 14.144 266.177 15.6071 265.861 17.4187C265.404 20.0663 265.404 22.9578 265.966 25.5706C266.598 28.6014 267.897 30.9007 270.038 32.12C272.461 33.5483 275.34 33.409 277.657 31.5974C279.307 30.3084 280.5 28.5317 281.097 25.3964C281.589 22.8881 281.589 20.0315 281.167 17.4884C280.851 15.642 280.29 14.2485 279.377 12.9944C277.762 10.7648 275.62 9.89385 273.584 9.85901C271.443 9.82417 269.301 10.5906 267.616 12.9595V12.9247ZM303.355 8.50036C297.246 10.4861 293.981 15.5026 293.806 21.2856C293.911 27.5911 297.843 33.1303 304.864 34.7676C308.34 35.5689 311.921 35.3598 315.291 34.1057C319.223 32.6425 322.242 29.7859 323.541 25.8144C324.243 23.6894 324.454 21.2508 324.103 19.0212C323.576 15.433 321.505 12.4718 318.556 10.4164C314.168 7.42041 308.34 6.82817 303.355 8.46552V8.50036ZM303.144 12.9247C302.266 14.144 301.705 15.6071 301.389 17.4187C300.932 20.0663 300.932 22.9578 301.494 25.5706C302.126 28.6014 303.425 30.9007 305.566 32.12C307.989 33.5483 310.868 33.409 313.185 31.5974C314.835 30.3084 316.028 28.5317 316.625 25.3964C317.117 22.8881 317.152 20.0315 316.695 17.4884C316.379 15.642 315.818 14.2485 314.905 12.9944C313.29 10.7648 311.148 9.89385 309.112 9.85901C306.971 9.82417 304.829 10.5906 303.144 12.9595V12.9247ZM330.071 8.15199H336.706V18.1154L348.432 8.15199H353.487L340.217 19.4392L357.033 34.5934H349.169L336.741 23.4107V34.5934H330.106V8.15199H330.071ZM234.686 8.15199H241.321V31.9458H254.872V34.5934H234.721V8.15199H234.686Z" fill="white"/>
</svg>
