<svg width="173" height="64" viewBox="0 0 173 64" fill="none" xmlns="http://www.w3.org/2000/svg">
<path d="M45 57C58.8071 57 70 45.8071 70 32C70 18.1929 58.8071 7 45 7C31.1929 7 20 18.1929 20 32C20 45.8071 31.1929 57 45 57Z" fill="url(#paint0_linear_2282_11031)"/>
<path d="M44.5995 35.6256C46.567 35.6256 48.162 34.0304 48.162 32.0628C48.162 30.0951 46.567 28.5 44.5995 28.5C42.6321 28.5 41.0371 30.0951 41.0371 32.0628C41.0371 34.0304 42.6321 35.6256 44.5995 35.6256Z" fill="white"/>
<path d="M33.9121 27.6098C35.3877 27.6098 36.5839 26.4135 36.5839 24.9377C36.5839 23.462 35.3877 22.2656 33.9121 22.2656C32.4365 22.2656 31.2402 23.462 31.2402 24.9377C31.2402 26.4135 32.4365 27.6098 33.9121 27.6098Z" fill="white"/>
<path d="M55.2871 27.6098C56.7627 27.6098 57.9589 26.4135 57.9589 24.9377C57.9589 23.462 56.7627 22.2656 55.2871 22.2656C53.8115 22.2656 52.6152 23.462 52.6152 24.9377C52.6152 26.4135 53.8115 27.6098 55.2871 27.6098Z" fill="white"/>
<path d="M35.6933 43.641C37.1689 43.641 38.3651 42.4447 38.3651 40.969C38.3651 39.4932 37.1689 38.2969 35.6933 38.2969C34.2177 38.2969 33.0215 39.4932 33.0215 40.969C33.0215 42.4447 34.2177 43.641 35.6933 43.641Z" fill="white"/>
<path d="M53.5058 43.641C54.9814 43.641 56.1776 42.4447 56.1776 40.969C56.1776 39.4932 54.9814 38.2969 53.5058 38.2969C52.0302 38.2969 50.834 39.4932 50.834 40.969C50.834 42.4447 52.0302 43.641 53.5058 43.641Z" fill="white"/>
<path d="M44.5994 32.0631L33.9121 24.9375" stroke="white" strokeWidth="2"/>
<path d="M44.5996 32.0631L55.2869 24.9375" stroke="white" strokeWidth="2"/>
<path d="M44.5995 32.0625L35.6934 40.9694" stroke="white" strokeWidth="2"/>
<path d="M44.5996 32.0625L53.5057 40.9694" stroke="white" strokeWidth="2"/>
<path d="M86.4922 19.7891L88.7344 20.5C88.3906 21.75 87.8177 22.6797 87.0156 23.2891C86.2188 23.8932 85.2057 24.1953 83.9766 24.1953C82.4557 24.1953 81.2057 23.6771 80.2266 22.6406C79.2474 21.599 78.7578 20.1771 78.7578 18.375C78.7578 16.4688 79.25 14.9896 80.2344 13.9375C81.2188 12.8802 82.513 12.3516 84.1172 12.3516C85.5182 12.3516 86.6562 12.7656 87.5312 13.5938C88.0521 14.0833 88.4427 14.7865 88.7031 15.7031L86.4141 16.25C86.2786 15.6562 85.9948 15.1875 85.5625 14.8438C85.1354 14.5 84.6146 14.3281 84 14.3281C83.151 14.3281 82.4609 14.6328 81.9297 15.2422C81.4036 15.8516 81.1406 16.8385 81.1406 18.2031C81.1406 19.651 81.401 20.6823 81.9219 21.2969C82.4427 21.9115 83.1198 22.2188 83.9531 22.2188C84.5677 22.2188 85.0964 22.0234 85.5391 21.6328C85.9818 21.2422 86.2995 20.6276 86.4922 19.7891ZM96.1719 24V22.7578C95.8698 23.2005 95.4714 23.5495 94.9766 23.8047C94.487 24.0599 93.9688 24.1875 93.4219 24.1875C92.8646 24.1875 92.3646 24.0651 91.9219 23.8203C91.4792 23.5755 91.1589 23.2318 90.9609 22.7891C90.763 22.3464 90.6641 21.7344 90.6641 20.9531V15.7031H92.8594V19.5156C92.8594 20.6823 92.8984 21.3984 92.9766 21.6641C93.0599 21.9245 93.2083 22.1328 93.4219 22.2891C93.6354 22.4401 93.9062 22.5156 94.2344 22.5156C94.6094 22.5156 94.9453 22.4141 95.2422 22.2109C95.5391 22.0026 95.7422 21.7474 95.8516 21.4453C95.9609 21.138 96.0156 20.3906 96.0156 19.2031V15.7031H98.2109V24H96.1719ZM99.7188 21.6328L101.922 21.2969C102.016 21.724 102.206 22.0495 102.492 22.2734C102.779 22.4922 103.18 22.6016 103.695 22.6016C104.263 22.6016 104.69 22.4974 104.977 22.2891C105.169 22.1432 105.266 21.9479 105.266 21.7031C105.266 21.5365 105.214 21.3984 105.109 21.2891C105 21.1849 104.755 21.0885 104.375 21C102.604 20.6094 101.482 20.2526 101.008 19.9297C100.352 19.4818 100.023 18.8594 100.023 18.0625C100.023 17.3438 100.307 16.7396 100.875 16.25C101.443 15.7604 102.323 15.5156 103.516 15.5156C104.651 15.5156 105.495 15.7005 106.047 16.0703C106.599 16.4401 106.979 16.987 107.188 17.7109L105.117 18.0938C105.029 17.7708 104.859 17.5234 104.609 17.3516C104.365 17.1797 104.013 17.0938 103.555 17.0938C102.977 17.0938 102.562 17.1745 102.312 17.3359C102.146 17.4505 102.062 17.599 102.062 17.7812C102.062 17.9375 102.135 18.0703 102.281 18.1797C102.479 18.3255 103.161 18.5312 104.328 18.7969C105.5 19.0625 106.318 19.388 106.781 19.7734C107.24 20.1641 107.469 20.7083 107.469 21.4062C107.469 22.1667 107.151 22.8203 106.516 23.3672C105.88 23.9141 104.94 24.1875 103.695 24.1875C102.565 24.1875 101.669 23.9583 101.008 23.5C100.352 23.0417 99.9219 22.4193 99.7188 21.6328ZM113.203 15.7031V17.4531H111.703V20.7969C111.703 21.474 111.716 21.8698 111.742 21.9844C111.773 22.0938 111.839 22.1849 111.938 22.2578C112.042 22.3307 112.167 22.3672 112.312 22.3672C112.516 22.3672 112.81 22.2969 113.195 22.1562L113.383 23.8594C112.872 24.0781 112.294 24.1875 111.648 24.1875C111.253 24.1875 110.896 24.1224 110.578 23.9922C110.26 23.8568 110.026 23.6849 109.875 23.4766C109.729 23.263 109.628 22.9766 109.57 22.6172C109.523 22.362 109.5 21.8464 109.5 21.0703V17.4531H108.492V15.7031H109.5V14.0547L111.703 12.7734V15.7031H113.203ZM114.219 19.7344C114.219 19.0052 114.398 18.2995 114.758 17.6172C115.117 16.9349 115.625 16.4141 116.281 16.0547C116.943 15.6953 117.68 15.5156 118.492 15.5156C119.747 15.5156 120.776 15.9245 121.578 16.7422C122.38 17.5547 122.781 18.5833 122.781 19.8281C122.781 21.0833 122.375 22.125 121.562 22.9531C120.755 23.776 119.737 24.1875 118.508 24.1875C117.747 24.1875 117.021 24.0156 116.328 23.6719C115.641 23.3281 115.117 22.8255 114.758 22.1641C114.398 21.4974 114.219 20.6875 114.219 19.7344ZM116.469 19.8516C116.469 20.6745 116.664 21.3047 117.055 21.7422C117.445 22.1797 117.927 22.3984 118.5 22.3984C119.073 22.3984 119.552 22.1797 119.938 21.7422C120.328 21.3047 120.523 20.6693 120.523 19.8359C120.523 19.0234 120.328 18.3984 119.938 17.9609C119.552 17.5234 119.073 17.3047 118.5 17.3047C117.927 17.3047 117.445 17.5234 117.055 17.9609C116.664 18.3984 116.469 19.0286 116.469 19.8516ZM124.344 15.7031H126.367V16.8359C127.091 15.9557 127.953 15.5156 128.953 15.5156C129.484 15.5156 129.945 15.625 130.336 15.8438C130.727 16.0625 131.047 16.3932 131.297 16.8359C131.661 16.3932 132.055 16.0625 132.477 15.8438C132.898 15.625 133.349 15.5156 133.828 15.5156C134.438 15.5156 134.953 15.6406 135.375 15.8906C135.797 16.1354 136.112 16.4974 136.32 16.9766C136.471 17.3307 136.547 17.9036 136.547 18.6953V24H134.352V19.2578C134.352 18.4349 134.276 17.9036 134.125 17.6641C133.922 17.3516 133.609 17.1953 133.188 17.1953C132.88 17.1953 132.591 17.2891 132.32 17.4766C132.049 17.6641 131.854 17.9401 131.734 18.3047C131.615 18.6641 131.555 19.2344 131.555 20.0156V24H129.359V19.4531C129.359 18.6458 129.32 18.125 129.242 17.8906C129.164 17.6562 129.042 17.4818 128.875 17.3672C128.714 17.2526 128.492 17.1953 128.211 17.1953C127.872 17.1953 127.568 17.2865 127.297 17.4688C127.026 17.651 126.831 17.9141 126.711 18.2578C126.596 18.6016 126.539 19.1719 126.539 19.9688V24H124.344V15.7031Z" fill="#1F2937"/>
<path d="M90.7383 42.6836L94.1016 43.75C93.5859 45.625 92.7266 47.0195 91.5234 47.9336C90.3281 48.8398 88.8086 49.293 86.9648 49.293C84.6836 49.293 82.8086 48.5156 81.3398 46.9609C79.8711 45.3984 79.1367 43.2656 79.1367 40.5625C79.1367 37.7031 79.875 35.4844 81.3516 33.9062C82.8281 32.3203 84.7695 31.5273 87.1758 31.5273C89.2773 31.5273 90.9844 32.1484 92.2969 33.3906C93.0781 34.125 93.6641 35.1797 94.0547 36.5547L90.6211 37.375C90.418 36.4844 89.9922 35.7812 89.3438 35.2656C88.7031 34.75 87.9219 34.4922 87 34.4922C85.7266 34.4922 84.6914 34.9492 83.8945 35.8633C83.1055 36.7773 82.7109 38.2578 82.7109 40.3047C82.7109 42.4766 83.1016 44.0234 83.8828 44.9453C84.6641 45.8672 85.6797 46.3281 86.9297 46.3281C87.8516 46.3281 88.6445 46.0352 89.3086 45.4492C89.9727 44.8633 90.4492 43.9414 90.7383 42.6836ZM97.1016 49V31.8203H104.402C106.238 31.8203 107.57 31.9766 108.398 32.2891C109.234 32.5938 109.902 33.1406 110.402 33.9297C110.902 34.7188 111.152 35.6211 111.152 36.6367C111.152 37.9258 110.773 38.9922 110.016 39.8359C109.258 40.6719 108.125 41.1992 106.617 41.418C107.367 41.8555 107.984 42.3359 108.469 42.8594C108.961 43.3828 109.621 44.3125 110.449 45.6484L112.547 49H108.398L105.891 45.2617C105 43.9258 104.391 43.0859 104.062 42.7422C103.734 42.3906 103.387 42.1523 103.02 42.0273C102.652 41.8945 102.07 41.8281 101.273 41.8281H100.57V49H97.1016ZM100.57 39.0859H103.137C104.801 39.0859 105.84 39.0156 106.254 38.875C106.668 38.7344 106.992 38.4922 107.227 38.1484C107.461 37.8047 107.578 37.375 107.578 36.8594C107.578 36.2812 107.422 35.8164 107.109 35.4648C106.805 35.1055 106.371 34.8789 105.809 34.7852C105.527 34.7461 104.684 34.7266 103.277 34.7266H100.57V39.0859ZM114.387 49V31.8203H119.578L122.695 43.5391L125.777 31.8203H130.98V49H127.758V35.4766L124.348 49H121.008L117.609 35.4766V49H114.387Z" fill="#0160C9"/>
<defs>
<linearGradient id="paint0_linear_2282_11031" x1="20" y1="7" x2="5020" y2="7" gradientUnits="userSpaceOnUse">
<stop stop-color="#2563EB"/>
<stop offset="1" stop-color="#1D4ED8"/>
</linearGradient>
</defs>
</svg>
