<svg width="140" height="30" viewBox="0 0 140 30" fill="none" xmlns="http://www.w3.org/2000/svg">
<g clip-path="url(#clip0_604_1448)">
<path fill-rule="evenodd" clip-rule="evenodd" d="M1.29414 12.1313C2.43683 13.9074 3.70342 15.6151 4.69467 17.5004C5.69969 19.3584 8.06767 23.5661 8.7285 24.1399C9.38933 24.7547 10.0089 24.782 10.5596 24.058C11.124 23.3339 11.5508 22.5415 11.9914 21.7355C12.5558 20.7382 13.0377 19.6726 13.8224 18.8119C14.1391 18.4977 14.4832 18.1698 14.8825 17.9375C15.502 17.5823 16.1216 17.6506 16.7273 18.1015C17.4708 18.6616 17.9526 19.4403 18.2142 20.301C20.3206 27.1045 20.4032 29.427 20.3619 29.4406C19.8663 29.4543 18.3932 24.0989 18.0077 22.8967C17.9251 22.5962 16.8237 19.0168 15.86 19.0305C14.6347 19.0715 11.124 28.7712 10.7936 29.1947C10.4081 29.6729 9.92626 29.7002 9.527 29.2357C9.21036 28.8805 1.2666 12.1177 1.29414 12.1177V12.1313Z" fill="#005677"/>
<path fill-rule="evenodd" clip-rule="evenodd" d="M24.7399 23.3476C24.8225 22.5006 24.8501 21.6262 25.029 20.7929C25.4558 18.5114 25.9377 16.2299 26.4195 13.9484C26.9427 11.6122 27.3833 9.24878 27.342 6.84433C27.3282 5.81971 27.1767 4.82241 26.5021 4.00271C25.7725 3.12836 24.7399 2.84147 23.6661 2.89612C22.1792 2.97809 20.7061 3.14203 19.2468 3.4016C17.6222 3.66117 15.9977 3.90708 14.3181 3.64751C12.9276 3.44258 11.661 2.95076 10.5183 2.17205C10.4632 2.13106 10.4219 2.09008 10.3531 2.04909C10.3393 2.03543 10.3393 2.00811 10.3393 1.99445C11.0277 2.17205 11.6885 2.39064 12.3906 2.54091C14.0152 2.85513 15.626 2.59556 17.2367 2.25402C19.0816 1.87149 20.9126 1.407 22.785 1.07912C23.9139 0.874193 25.0979 0.778561 26.2406 0.737576C28.3883 0.696591 29.8614 1.91248 30.2606 4.0437C30.5222 5.38254 30.3845 6.70772 30.1643 8.04656C29.7788 10.2871 28.8977 12.35 28.1129 14.4675C27.0804 17.3092 26.0616 20.1508 25.0428 23.0061C24.974 23.211 24.8914 23.4296 24.795 23.6345C24.7537 23.7165 24.7262 23.7165 24.7262 23.6618C24.7262 23.5662 24.7399 23.4569 24.7537 23.3613L24.7399 23.3476Z" fill="#407F9F"/>
<path fill-rule="evenodd" clip-rule="evenodd" d="M4.52949 14.5358C3.73098 13.6615 3.22159 12.2406 2.73973 11.175C1.89992 9.33072 1.15649 6.96725 1.51444 4.89068C1.87239 2.96439 4.36428 1.35231 6.19533 2.22666C7.80611 3.00537 9.7473 4.84969 11.5233 5.45081C13.3681 6.06558 15.7636 5.53278 15.7636 5.53278C15.7636 5.53278 11.9501 5.0273 8.3155 1.70752C5.42436 -0.956506 2.45062 -0.300747 0.798538 2.24032C-0.481824 4.22126 -0.0275023 6.89894 0.812305 8.96185C1.65211 10.9565 3.05638 12.9237 4.52949 14.5221V14.5358Z" fill="#81BD41"/>
<path fill-rule="evenodd" clip-rule="evenodd" d="M25.7449 27.8013C39.1268 22.8968 54.0093 21.435 68.1896 23.7848C73.9168 24.7274 79.5201 26.2712 85.2887 26.886C91.4151 27.5281 97.6655 27.1045 103.627 25.6427C108.624 24.4269 113.512 22.4049 117.146 19.0442C117.146 19.0442 117.89 19.0032 117.422 19.3994C113.746 22.7192 108.418 26.8313 103.42 28.0472C97.4727 29.509 91.2086 29.9325 85.0821 29.2904C79.3136 28.6756 73.7103 27.1319 68.0106 26.1892C53.8028 23.8531 39.1405 23.1017 25.7862 28.0745C25.7862 28.0745 25.1667 28.0335 25.7449 27.815V27.8013Z" fill="#005677"/>
<path fill-rule="evenodd" clip-rule="evenodd" d="M35.561 1.6394H40.1593C41.5498 1.6394 42.899 1.87165 44.1794 2.43178C46.217 3.33345 47.5111 4.97285 47.5111 7.25434C47.5111 9.53584 46.9053 10.7381 45.5974 11.8993C44.3584 13.0059 42.5135 13.566 40.531 13.566H35.561V1.6394ZM38.4659 2.82797V12.3638H39.9804C40.7376 12.3638 41.3846 12.2272 41.9215 11.9676C43.5874 11.1206 44.3171 9.34457 44.3033 7.47293C44.3033 6.47563 43.9866 5.51931 43.5736 4.82257C42.844 3.57936 41.5774 2.84163 40.118 2.84163H38.4659V2.82797ZM84.6003 2.99191H85.7292L90.6441 13.5524H88.0284L86.7342 10.7517H82.6316L81.2961 13.5524H79.5752L84.614 2.99191H84.6003ZM84.6967 6.39366L83.0859 9.76809H86.2661L84.6967 6.39366ZM73.9306 3.19683H80.1121V4.07118H76.5326V13.566H73.9306V4.07118H70.3511V3.19683H73.9306ZM59.4611 3.19683H61.0857L67.0194 9.78175V3.19683H68.6439V13.73H67.5426L61.0719 6.43464V13.566H59.4474V3.19683H59.4611ZM50.058 3.19683H57.7953V4.07118H52.5775V7.51391H56.9142V8.38826H52.5775V12.5141H57.7953V13.5524H50.058V3.19683Z" fill="#81BD41"/>
<path fill-rule="evenodd" clip-rule="evenodd" d="M105.031 3.33324C102.636 4.11196 101.355 6.07924 101.286 8.34707C101.328 10.8198 102.87 12.992 105.623 13.6341C106.986 13.9483 108.39 13.8664 109.712 13.3746C111.254 12.8008 112.438 11.6805 112.947 10.1231C113.223 9.28972 113.305 8.33341 113.168 7.45906C112.961 6.05191 112.149 4.89067 110.992 4.08463C109.271 2.90973 106.986 2.67749 105.031 3.31958V3.33324ZM104.948 5.06827C104.604 5.54643 104.384 6.12022 104.26 6.83063C104.081 7.86891 104.081 9.00283 104.301 10.0275C104.549 11.216 105.059 12.1177 105.898 12.5958C106.848 13.156 107.977 13.1013 108.886 12.3909C109.533 11.8854 110.001 11.1887 110.235 9.95914C110.428 8.97551 110.428 7.85525 110.263 6.85795C110.139 6.13388 109.918 5.58742 109.56 5.0956C108.927 4.22125 108.087 3.87971 107.289 3.86605C106.449 3.85239 105.609 4.15294 104.948 5.08194V5.06827ZM118.964 3.33324C116.568 4.11196 115.288 6.07924 115.219 8.34707C115.26 10.8198 116.802 12.992 119.556 13.6341C120.919 13.9483 122.323 13.8664 123.644 13.3746C125.186 12.8008 126.37 11.6805 126.88 10.1231C127.155 9.28972 127.238 8.33341 127.1 7.45906C126.894 6.05191 126.081 4.89067 124.925 4.08463C123.204 2.90973 120.919 2.67749 118.964 3.31958V3.33324ZM118.881 5.06827C118.537 5.54643 118.317 6.12022 118.193 6.83063C118.014 7.86891 118.014 9.00283 118.234 10.0275C118.482 11.216 118.991 12.1177 119.831 12.5958C120.781 13.156 121.91 13.1013 122.818 12.3909C123.465 11.8854 123.934 11.1887 124.168 9.95914C124.36 8.97551 124.374 7.85525 124.195 6.85795C124.071 6.13388 123.851 5.58742 123.493 5.0956C122.86 4.22125 122.02 3.87971 121.221 3.86605C120.382 3.85239 119.542 4.15294 118.881 5.08194V5.06827ZM129.441 3.19663H132.043V7.10386L136.641 3.19663H138.623L133.419 7.623L140.014 13.5658H136.93L132.056 9.18043V13.5658H129.454V3.19663H129.441ZM92.0347 3.19663H94.6367V12.5275H99.9509V13.5658H92.0484V3.19663H92.0347Z" fill="#005677"/>
</g>
<defs>
<clipPath id="clip0_604_1448">
<rect width="140" height="29.5775" fill="white"/>
</clipPath>
</defs>
</svg>
